<?xml version="1.0" encoding="iso-8859-1"?>
<!-- Generator: Adobe Illustrator 18.0.0, SVG Export Plug-In . SVG Version: 6.00 Build 0)  -->
<!DOCTYPE svg PUBLIC "-//W3C//DTD SVG 1.1//EN" "http://www.w3.org/Graphics/SVG/1.1/DTD/svg11.dtd">
<svg version="1.1" id="Capa_1" xmlns="http://www.w3.org/2000/svg" xmlns:xlink="http://www.w3.org/1999/xlink" x="0px" y="0px"
	 viewBox="0 0 13.978 13.978" style="enable-background:new 0 0 13.978 13.978;" xml:space="preserve">
<g id="interface_-_cross_cancel">
	<g>
		<path style="fill-rule:evenodd;clip-rule:evenodd;" d="M7.683,6.989l6.151-6.151c0.192-0.191,0.192-0.503,0-0.694
			c-0.192-0.192-0.503-0.192-0.694,0L6.989,6.295L0.838,0.144c-0.192-0.192-0.503-0.192-0.694,0c-0.192,0.192-0.192,0.503,0,0.694
			l6.151,6.151L0.144,13.14c-0.192,0.192-0.192,0.502,0,0.694c0.192,0.192,0.503,0.192,0.694,0l6.151-6.151l6.151,6.151
			c0.192,0.192,0.503,0.192,0.694,0c0.192-0.191,0.192-0.502,0-0.694L7.683,6.989z"/>
	</g>
</g>
<g>
</g>
<g>
</g>
<g>
</g>
<g>
</g>
<g>
</g>
<g>
</g>
<g>
</g>
<g>
</g>
<g>
</g>
<g>
</g>
<g>
</g>
<g>
</g>
<g>
</g>
<g>
</g>
<g>
</g>
</svg>
